<mxfile host="app.diagrams.net" modified="2021-08-22T14:47:28.031Z" agent="5.0 (Windows NT 10.0; Win64; x64) AppleWebKit/537.36 (KHTML, like Gecko) Chrome/92.0.4515.159 Safari/537.36 Edg/92.0.902.78" etag="LF6Szk0xhUvOZCnjy_vQ" version="14.9.8" type="github">
  <diagram id="yv2djHxBlIUbBeA3SvNk" name="Page-1">
    <mxGraphModel dx="1108" dy="482" grid="1" gridSize="10" guides="1" tooltips="1" connect="1" arrows="1" fold="1" page="1" pageScale="1" pageWidth="980" pageHeight="690" math="0" shadow="0">
      <root>
        <mxCell id="0" />
        <mxCell id="1" parent="0" />
        <mxCell id="7CqnUbNs2xBVpKQVdwJ8-20" value="多核处理器" style="rounded=0;whiteSpace=wrap;html=1;shadow=1;verticalAlign=top;fontStyle=1" vertex="1" parent="1">
          <mxGeometry x="30" y="90" width="460" height="300" as="geometry" />
        </mxCell>
        <mxCell id="7CqnUbNs2xBVpKQVdwJ8-27" value="" style="rounded=0;whiteSpace=wrap;html=1;shadow=1;align=center;verticalAlign=middle;fillColor=#fff2cc;strokeColor=#d6b656;" vertex="1" parent="1">
          <mxGeometry x="60" y="120" width="410" height="210" as="geometry" />
        </mxCell>
        <mxCell id="7CqnUbNs2xBVpKQVdwJ8-16" value="" style="edgeStyle=orthogonalEdgeStyle;rounded=0;orthogonalLoop=1;jettySize=auto;html=1;startArrow=blockThin;startFill=0;strokeWidth=2;strokeColor=#66B2FF;endArrow=blockThin;endFill=0;" edge="1" parent="1" source="7CqnUbNs2xBVpKQVdwJ8-4">
          <mxGeometry relative="1" as="geometry">
            <mxPoint x="160" y="288" as="targetPoint" />
          </mxGeometry>
        </mxCell>
        <mxCell id="7CqnUbNs2xBVpKQVdwJ8-4" value="Core-1" style="rounded=0;whiteSpace=wrap;html=1;shadow=1;horizontal=1;verticalAlign=top;fontStyle=1;fillColor=#dae8fc;strokeColor=#6c8ebf;" vertex="1" parent="1">
          <mxGeometry x="80" y="130" width="160" height="130" as="geometry" />
        </mxCell>
        <mxCell id="7CqnUbNs2xBVpKQVdwJ8-5" value="寄存器" style="rounded=0;whiteSpace=wrap;html=1;shadow=1;fillColor=#d5e8d4;strokeColor=#82b366;" vertex="1" parent="1">
          <mxGeometry x="100" y="160" width="120" height="20" as="geometry" />
        </mxCell>
        <mxCell id="7CqnUbNs2xBVpKQVdwJ8-6" value="L1 Cache (128k)" style="rounded=0;whiteSpace=wrap;html=1;shadow=1;fillColor=#d5e8d4;strokeColor=#82b366;" vertex="1" parent="1">
          <mxGeometry x="100" y="190" width="120" height="20" as="geometry" />
        </mxCell>
        <mxCell id="7CqnUbNs2xBVpKQVdwJ8-7" value="L2 Cache (512k)" style="rounded=0;whiteSpace=wrap;html=1;shadow=1;fillColor=#d5e8d4;strokeColor=#82b366;" vertex="1" parent="1">
          <mxGeometry x="100" y="220" width="120" height="20" as="geometry" />
        </mxCell>
        <mxCell id="7CqnUbNs2xBVpKQVdwJ8-8" value="Core-2" style="rounded=0;whiteSpace=wrap;html=1;shadow=1;horizontal=1;verticalAlign=top;fontStyle=1;fillColor=#dae8fc;strokeColor=#6c8ebf;" vertex="1" parent="1">
          <mxGeometry x="300" y="130" width="160" height="130" as="geometry" />
        </mxCell>
        <mxCell id="7CqnUbNs2xBVpKQVdwJ8-9" value="寄存器" style="rounded=0;whiteSpace=wrap;html=1;shadow=1;fillColor=#d5e8d4;strokeColor=#82b366;" vertex="1" parent="1">
          <mxGeometry x="320" y="160" width="120" height="20" as="geometry" />
        </mxCell>
        <mxCell id="7CqnUbNs2xBVpKQVdwJ8-10" value="L1 Cache (128k)" style="rounded=0;whiteSpace=wrap;html=1;shadow=1;fillColor=#d5e8d4;strokeColor=#82b366;" vertex="1" parent="1">
          <mxGeometry x="320" y="190" width="120" height="20" as="geometry" />
        </mxCell>
        <mxCell id="7CqnUbNs2xBVpKQVdwJ8-11" value="L2 Cache (512k)" style="rounded=0;whiteSpace=wrap;html=1;shadow=1;fillColor=#d5e8d4;strokeColor=#82b366;" vertex="1" parent="1">
          <mxGeometry x="320" y="220" width="120" height="20" as="geometry" />
        </mxCell>
        <mxCell id="7CqnUbNs2xBVpKQVdwJ8-13" value="L3 Cache (3MB)" style="rounded=0;whiteSpace=wrap;html=1;shadow=1;verticalAlign=top;fillColor=#d5e8d4;strokeColor=#82b366;" vertex="1" parent="1">
          <mxGeometry x="80" y="290" width="380" height="30" as="geometry" />
        </mxCell>
        <mxCell id="7CqnUbNs2xBVpKQVdwJ8-18" value="" style="edgeStyle=orthogonalEdgeStyle;rounded=0;orthogonalLoop=1;jettySize=auto;html=1;startArrow=blockThin;startFill=0;strokeWidth=2;strokeColor=#66B2FF;endArrow=blockThin;endFill=0;" edge="1" parent="1">
          <mxGeometry relative="1" as="geometry">
            <mxPoint x="379.5" y="262" as="sourcePoint" />
            <mxPoint x="379.5" y="290" as="targetPoint" />
          </mxGeometry>
        </mxCell>
        <mxCell id="7CqnUbNs2xBVpKQVdwJ8-21" value="" style="shape=flexArrow;endArrow=classic;startArrow=classic;html=1;strokeWidth=6;shadow=0;strokeColor=#999999;fillColor=#999999;" edge="1" parent="1">
          <mxGeometry width="100" height="100" relative="1" as="geometry">
            <mxPoint x="30" y="450" as="sourcePoint" />
            <mxPoint x="820" y="450" as="targetPoint" />
            <Array as="points" />
          </mxGeometry>
        </mxCell>
        <mxCell id="7CqnUbNs2xBVpKQVdwJ8-38" value="" style="edgeStyle=orthogonalEdgeStyle;rounded=0;orthogonalLoop=1;jettySize=auto;html=1;shadow=0;startArrow=blockThin;startFill=0;endArrow=none;endFill=0;strokeColor=#999999;strokeWidth=4;fillColor=#999999;" edge="1" parent="1" source="7CqnUbNs2xBVpKQVdwJ8-22">
          <mxGeometry relative="1" as="geometry">
            <mxPoint x="220" y="460" as="targetPoint" />
          </mxGeometry>
        </mxCell>
        <mxCell id="7CqnUbNs2xBVpKQVdwJ8-22" value="USB控制器" style="rounded=0;whiteSpace=wrap;html=1;shadow=1;align=center;verticalAlign=middle;" vertex="1" parent="1">
          <mxGeometry x="170" y="500" width="100" height="40" as="geometry" />
        </mxCell>
        <mxCell id="7CqnUbNs2xBVpKQVdwJ8-23" value="图形适配器" style="rounded=0;whiteSpace=wrap;html=1;shadow=1;align=center;verticalAlign=middle;" vertex="1" parent="1">
          <mxGeometry x="340" y="500" width="100" height="40" as="geometry" />
        </mxCell>
        <mxCell id="7CqnUbNs2xBVpKQVdwJ8-24" value="磁盘控制器" style="rounded=0;whiteSpace=wrap;html=1;shadow=1;align=center;verticalAlign=middle;" vertex="1" parent="1">
          <mxGeometry x="540" y="500" width="100" height="40" as="geometry" />
        </mxCell>
        <mxCell id="7CqnUbNs2xBVpKQVdwJ8-32" value="" style="edgeStyle=orthogonalEdgeStyle;rounded=0;orthogonalLoop=1;jettySize=auto;html=1;shadow=0;startArrow=blockThin;startFill=0;endArrow=blockThin;endFill=0;strokeColor=#999999;strokeWidth=4;fillColor=#999999;entryX=1;entryY=0.5;entryDx=0;entryDy=0;" edge="1" parent="1" source="7CqnUbNs2xBVpKQVdwJ8-25" target="7CqnUbNs2xBVpKQVdwJ8-26">
          <mxGeometry relative="1" as="geometry" />
        </mxCell>
        <mxCell id="7CqnUbNs2xBVpKQVdwJ8-34" value="" style="edgeStyle=orthogonalEdgeStyle;rounded=0;orthogonalLoop=1;jettySize=auto;html=1;shadow=0;startArrow=blockThin;startFill=0;endArrow=blockThin;endFill=0;strokeColor=#999999;strokeWidth=4;fillColor=#999999;" edge="1" parent="1" source="7CqnUbNs2xBVpKQVdwJ8-25" target="7CqnUbNs2xBVpKQVdwJ8-33">
          <mxGeometry relative="1" as="geometry" />
        </mxCell>
        <mxCell id="7CqnUbNs2xBVpKQVdwJ8-37" value="" style="edgeStyle=orthogonalEdgeStyle;rounded=0;orthogonalLoop=1;jettySize=auto;html=1;shadow=0;startArrow=blockThin;startFill=0;endArrow=none;endFill=0;strokeColor=#999999;strokeWidth=4;fillColor=#999999;" edge="1" parent="1" source="7CqnUbNs2xBVpKQVdwJ8-25">
          <mxGeometry relative="1" as="geometry">
            <mxPoint x="570" y="443" as="targetPoint" />
          </mxGeometry>
        </mxCell>
        <mxCell id="7CqnUbNs2xBVpKQVdwJ8-25" value="I/o桥" style="rounded=0;whiteSpace=wrap;html=1;shadow=1;align=center;verticalAlign=middle;fillColor=#e1d5e7;strokeColor=#9673a6;" vertex="1" parent="1">
          <mxGeometry x="540" y="345" width="60" height="40" as="geometry" />
        </mxCell>
        <mxCell id="7CqnUbNs2xBVpKQVdwJ8-26" value="总线接口" style="rounded=0;whiteSpace=wrap;html=1;shadow=1;align=center;verticalAlign=middle;fillColor=#e1d5e7;strokeColor=#9673a6;" vertex="1" parent="1">
          <mxGeometry x="175" y="345" width="190" height="40" as="geometry" />
        </mxCell>
        <mxCell id="7CqnUbNs2xBVpKQVdwJ8-30" value="" style="edgeStyle=orthogonalEdgeStyle;rounded=0;orthogonalLoop=1;jettySize=auto;html=1;startArrow=blockThin;startFill=0;strokeWidth=2;strokeColor=#66B2FF;endArrow=blockThin;endFill=0;" edge="1" parent="1">
          <mxGeometry relative="1" as="geometry">
            <mxPoint x="272.5" y="324" as="sourcePoint" />
            <mxPoint x="272.5" y="352" as="targetPoint" />
          </mxGeometry>
        </mxCell>
        <mxCell id="7CqnUbNs2xBVpKQVdwJ8-33" value="主存储器" style="rounded=0;whiteSpace=wrap;html=1;shadow=1;align=center;verticalAlign=middle;fillColor=#e1d5e7;strokeColor=#9673a6;" vertex="1" parent="1">
          <mxGeometry x="660" y="345" width="80" height="40" as="geometry" />
        </mxCell>
        <mxCell id="7CqnUbNs2xBVpKQVdwJ8-35" value="扩展槽" style="rounded=0;whiteSpace=wrap;html=1;shadow=1;align=center;verticalAlign=middle;" vertex="1" parent="1">
          <mxGeometry x="700" y="420" width="20" height="60" as="geometry" />
        </mxCell>
        <mxCell id="7CqnUbNs2xBVpKQVdwJ8-36" value="&lt;span&gt;扩展槽&lt;/span&gt;" style="rounded=0;whiteSpace=wrap;html=1;shadow=1;align=center;verticalAlign=middle;" vertex="1" parent="1">
          <mxGeometry x="740" y="420" width="20" height="60" as="geometry" />
        </mxCell>
        <mxCell id="7CqnUbNs2xBVpKQVdwJ8-39" value="" style="edgeStyle=orthogonalEdgeStyle;rounded=0;orthogonalLoop=1;jettySize=auto;html=1;shadow=0;startArrow=blockThin;startFill=0;endArrow=none;endFill=0;strokeColor=#999999;strokeWidth=4;fillColor=#999999;" edge="1" parent="1">
          <mxGeometry relative="1" as="geometry">
            <mxPoint x="389" y="502" as="sourcePoint" />
            <mxPoint x="389" y="460" as="targetPoint" />
          </mxGeometry>
        </mxCell>
        <mxCell id="7CqnUbNs2xBVpKQVdwJ8-41" value="" style="edgeStyle=orthogonalEdgeStyle;rounded=0;orthogonalLoop=1;jettySize=auto;html=1;shadow=0;startArrow=blockThin;startFill=0;endArrow=none;endFill=0;strokeColor=#999999;strokeWidth=4;fillColor=#999999;" edge="1" parent="1">
          <mxGeometry relative="1" as="geometry">
            <mxPoint x="578" y="504" as="sourcePoint" />
            <mxPoint x="578" y="462" as="targetPoint" />
          </mxGeometry>
        </mxCell>
        <mxCell id="7CqnUbNs2xBVpKQVdwJ8-44" value="" style="edgeStyle=orthogonalEdgeStyle;rounded=0;orthogonalLoop=1;jettySize=auto;html=1;shadow=0;startArrow=none;startFill=0;endArrow=classicThin;endFill=1;strokeColor=#999999;strokeWidth=4;fillColor=#999999;" edge="1" parent="1" source="7CqnUbNs2xBVpKQVdwJ8-42" target="7CqnUbNs2xBVpKQVdwJ8-22">
          <mxGeometry relative="1" as="geometry" />
        </mxCell>
        <mxCell id="7CqnUbNs2xBVpKQVdwJ8-42" value="" style="verticalLabelPosition=bottom;verticalAlign=top;html=1;shadow=0;dashed=0;strokeWidth=1;shape=mxgraph.android.keyboard;" vertex="1" parent="1">
          <mxGeometry x="160" y="590" width="50" height="30" as="geometry" />
        </mxCell>
        <mxCell id="7CqnUbNs2xBVpKQVdwJ8-45" value="" style="edgeStyle=orthogonalEdgeStyle;rounded=0;orthogonalLoop=1;jettySize=auto;html=1;shadow=0;startArrow=none;startFill=0;endArrow=none;endFill=0;strokeColor=#999999;strokeWidth=4;fillColor=#999999;" edge="1" parent="1" source="7CqnUbNs2xBVpKQVdwJ8-43" target="7CqnUbNs2xBVpKQVdwJ8-22">
          <mxGeometry relative="1" as="geometry" />
        </mxCell>
        <mxCell id="7CqnUbNs2xBVpKQVdwJ8-43" value="" style="pointerEvents=1;shadow=0;dashed=0;html=1;strokeColor=none;fillColor=#434445;aspect=fixed;labelPosition=center;verticalLabelPosition=bottom;verticalAlign=top;align=center;outlineConnect=0;shape=mxgraph.vvd.mouse;" vertex="1" parent="1">
          <mxGeometry x="245.5" y="590" width="24.5" height="50" as="geometry" />
        </mxCell>
        <mxCell id="7CqnUbNs2xBVpKQVdwJ8-48" value="" style="edgeStyle=orthogonalEdgeStyle;rounded=0;orthogonalLoop=1;jettySize=auto;html=1;shadow=0;startArrow=none;startFill=0;endArrow=classicThin;endFill=1;strokeColor=#999999;strokeWidth=4;fillColor=#999999;" edge="1" parent="1" source="7CqnUbNs2xBVpKQVdwJ8-46" target="7CqnUbNs2xBVpKQVdwJ8-23">
          <mxGeometry relative="1" as="geometry" />
        </mxCell>
        <mxCell id="7CqnUbNs2xBVpKQVdwJ8-46" value="" style="aspect=fixed;pointerEvents=1;shadow=0;dashed=0;html=1;strokeColor=none;labelPosition=center;verticalLabelPosition=bottom;verticalAlign=top;align=center;fillColor=#00188D;shape=mxgraph.azure.computer" vertex="1" parent="1">
          <mxGeometry x="365" y="583" width="50" height="45" as="geometry" />
        </mxCell>
        <mxCell id="7CqnUbNs2xBVpKQVdwJ8-50" value="" style="edgeStyle=orthogonalEdgeStyle;rounded=0;orthogonalLoop=1;jettySize=auto;html=1;shadow=0;startArrow=none;startFill=0;endArrow=classicThin;endFill=1;strokeColor=#999999;strokeWidth=4;fillColor=#999999;" edge="1" parent="1" source="7CqnUbNs2xBVpKQVdwJ8-49" target="7CqnUbNs2xBVpKQVdwJ8-24">
          <mxGeometry relative="1" as="geometry" />
        </mxCell>
        <mxCell id="7CqnUbNs2xBVpKQVdwJ8-49" value="" style="pointerEvents=1;shadow=0;dashed=0;html=1;strokeColor=none;fillColor=#505050;labelPosition=center;verticalLabelPosition=bottom;verticalAlign=top;outlineConnect=0;align=center;shape=mxgraph.office.devices.hard_disk;" vertex="1" parent="1">
          <mxGeometry x="570" y="588" width="40" height="54" as="geometry" />
        </mxCell>
      </root>
    </mxGraphModel>
  </diagram>
</mxfile>
